<?xml version="1.0" encoding="UTF-8" standalone="no"?>
<!-- Created with Inkscape (http://www.inkscape.org/) -->

<svg
   version="1.1"
   id="svg1"
   width="304.97031"
   height="325.39658"
   viewBox="0 0 304.97031 325.39658"
   sodipodi:docname="509tatuajes.svg"
   inkscape:version="1.4.2 (ebf0e940d0, 2025-05-08)"
   xmlns:inkscape="http://www.inkscape.org/namespaces/inkscape"
   xmlns:sodipodi="http://sodipodi.sourceforge.net/DTD/sodipodi-0.dtd"
   xmlns="http://www.w3.org/2000/svg"
   xmlns:svg="http://www.w3.org/2000/svg">
  <defs
     id="defs1" />
  <sodipodi:namedview
     id="namedview1"
     pagecolor="#ffffff"
     bordercolor="#000000"
     borderopacity="0.25"
     inkscape:showpageshadow="2"
     inkscape:pageopacity="0.0"
     inkscape:pagecheckerboard="0"
     inkscape:deskcolor="#d1d1d1"
     inkscape:zoom="1.4142136"
     inkscape:cx="138.94648"
     inkscape:cy="159.09903"
     inkscape:window-width="1338"
     inkscape:window-height="719"
     inkscape:window-x="0"
     inkscape:window-y="0"
     inkscape:window-maximized="1"
     inkscape:current-layer="layer1" />
  <g
     inkscape:groupmode="layer"
     id="layer1"
     inkscape:label="509"
     style="display:inline;fill:#1a1a1a"
     transform="translate(-7.0603123,-28.18853)">
    <path
       style="display:inline;fill:#000000"
       d="m 170.25,129.125 c -4.41058,15.03163 -10.95066,22.36492 -17,28.875 6.33268,3.62598 10.26218,12.60673 14.75,19 3.82746,-15.98095 9.1338,-22.31138 14.75,-28.75 -10.39779,-8.54987 -9.77171,-13.33615 -12.5,-19.125 z"
       id="path3"
       inkscape:label="Star-Left"
       sodipodi:nodetypes="ccccc" />
    <path
       style="display:inline;fill:#000000;stroke-width:0.368958"
       d="m 101.85653,113.9217 c -1.82044,4.9577 -4.519802,7.37635 -7.016618,9.52349 2.613762,1.19592 4.235631,4.15793 6.087948,6.26654 1.57974,-5.2708 3.76989,-7.35869 6.08794,-9.48227 -4.29161,-2.81989 -4.0332,-4.39849 -5.15927,-6.30776 z"
       id="path4"
       inkscape:label="Star-Center"
       sodipodi:nodetypes="ccccc" />
    <path
       style="display:inline;fill:#000000;stroke-width:0.460514"
       d="m 246.30463,183.6717 c -2.1475,6.5472 -5.33182,9.7413 -8.27722,12.57685 3.08335,1.57936 4.9966,5.49102 7.1817,8.27568 1.86356,-6.96069 4.44718,-9.71799 7.18169,-12.52241 -5.06264,-3.72399 -4.7578,-5.80871 -6.08617,-8.33012 z"
       id="path5"
       inkscape:label="Star-Right"
       sodipodi:nodetypes="ccccc" />
    <path
       style="display:inline;fill:#000000"
       d="M 24.209184,352.00606 C 9.5263974,347.05729 5.7763632,329.91556 7.4174163,315.54303 8.313609,308.82218 10.724069,303.02286 11.744023,303.9514 c 1.237399,1.12648 -3.6843846,18.84672 7.439887,30.587 1.280628,1.35154 6.831314,4.6621 8.178272,5.00017 10.946876,2.71746 18.521546,-2.75003 26.27368,-9.43503 12.650364,-10.90895 20.238745,-23.20418 27.745589,-37.16087 5.447113,-10.12724 10.91926,-21.77863 14.800908,-33.47044 7.678551,-23.12836 12.036291,-56.40978 -7.160565,-55.07974 2.136162,-5.97946 4.825167,-9.6135 5.810484,-14.24461 6.168602,-28.99314 -9.59156,-34.90627 -22.859212,-27.18167 -17.667675,10.41056 -16.711378,32.0145 -22.763156,49.16772 -3.594329,9.2896 -9.05566,15.39158 -14.95218,15.39158 -5.132574,0 -6.070786,-4.02182 -3.043943,-11.6814 7.268192,-18.39253 9.472954,-54.05415 9.897375,-62.36564 0.846717,-16.58139 1.000538,-33.27958 -5.781004,-39.37171 -3.034372,-2.7259 -6.764852,3.96192 -10.056266,0.24069 -3.660163,-4.13869 6.277391,-14.705132 11.92825,-20.163059 11.552166,-11.157742 25.028827,-19.031525 28.712168,-17.362963 1.003384,0.454535 0.141812,2.751259 0.141812,4.349652 0,14.516352 30.190173,-3.721835 50.183678,-29.356946 3.05918,-3.922391 8.9227,-10.750284 11.59142,-16.290772 1.91148,-3.968388 1.80457,-7.965673 2.75551,-7.251434 0.13392,0.100583 1.78067,1.105288 1.94787,5.748264 0.30703,8.525627 -5.66465,18.531893 -12.63604,28.146617 -8.42864,11.624494 -13.48948,24.420329 -4.37856,27.765677 5.13974,1.88721 -6.21863,7.776487 -8.17865,8.775782 -7.944754,4.050552 -15.361481,3.700852 -16.037388,-0.386839 -1.581966,-9.567289 -26.322504,-0.644098 -33.440548,16.319531 -4.510837,10.75017 -5.025905,22.27448 -4.708432,30.06181 0.306819,7.52597 0.978198,11.46152 5.909583,6.1079 13.995179,-15.19346 40.950845,-15.15307 46.921975,0.87683 3.6456,9.78686 15.53376,21.73083 24.24932,26.26975 0.49407,0.25731 -3.26349,4.34343 -4.50184,12.45955 -1.80027,11.79893 -0.7074,16.73687 -1.73183,25.53159 -0.68572,5.88696 -2.70375,14.50415 -5.3,22.09653 -3.51525,10.27984 -7.06249,24.5272 -13.81445,39.87115 -5.496972,12.49194 -13.761067,24.98451 -20.998238,36.18048 -7.974342,12.33637 -17.522666,23.50151 -29.785615,32.64805 -9.387993,7.0022 -20.635109,8.38237 -29.894703,5.26146 z M 124.99402,221.22853 c 0.43383,-2.78307 4.32713,14.5034 6.95691,17.42225 1.14091,1.26632 1.81594,-6.5214 2.83846,-12.66387 0.83634,-5.02407 3.60388,-12.50071 4.44837,-13.8812 1.37867,-2.25369 -1.34427,4.64414 -0.32302,14.79005 1.3848,13.75772 -0.85828,46.56951 18.49907,49.32878 10.03371,1.43024 23.10997,-13.63973 30.23364,-29.19469 -3.24245,15.61824 8.83726,31.50308 6.97649,31.94502 -6.81409,1.61836 -12.14584,7.37033 -17.22558,11.7519 -7.16882,6.18354 -13.48512,11.21545 -19.71246,11.75114 -17.35302,1.49275 -28.69016,-12.65762 -34.4882,-33.41989 -1.45445,-5.20827 -5.64556,-12.06417 -5.32783,-18.3163 0.20322,-3.99898 1.95353,-7.84091 3.41388,-12.18888 1.70862,-5.08719 2.76728,-11.27489 3.71027,-17.32431 z m 69.85944,16.62186 c -1.71292,13.01161 3.12133,33.64208 17.63805,36.57039 34.5619,6.97181 91.93588,-91.4933 69.98646,-132.97304 1.06357,-4.26213 8.25675,-18.73237 6.89068,-25.50613 -0.26549,-1.31645 -3.346,13.23723 -20.11999,30.89865 -30.78501,32.41371 -63.12242,0.79113 -55.64648,-50.537259 2.24936,-15.443712 8.98524,-28.026353 17.78798,-41.296742 l -3.89551,-2.384776 c -3.91341,-2.395736 -3.10828,-5.69496 1.26476,-6.235136 3.06269,-0.378317 11.25809,-2.995094 14.59671,-5.777803 25.52976,-21.278812 45.76709,-5.531364 56.71008,34.839679 3.37431,12.448565 2.35259,24.712167 5.57439,41.734027 0.58648,3.09858 2.40626,5.97302 4.36075,8.93918 3.06199,4.64691 2.16628,3.28836 0.5281,6.40873 -5.166,9.84008 3.36373,34.20731 -23.05618,87.88432 -13.70571,27.84572 -31.40059,48.46261 -44.63543,57.92445 -42.1382,30.12541 -62.41885,-22.49345 -47.98437,-40.48854 z M 261.95,109.8125 c -8.96856,2.87369 4.82765,-28.159071 19.41709,-27.466836 6.38426,0.302918 3.91905,-7.831124 0.23849,-16.574957 -7.87966,-18.719563 -26.33064,-33.258481 -44.47635,-0.360753 -1.42758,2.588168 -0.36241,7.641305 -1.1653,7.27182 -3.30665,-1.521705 -7.44747,5.632565 -8.77523,14.008947 -1.6736,10.55814 -3.33057,23.464449 -1.02543,31.395069 5.41423,18.62718 19.41166,18.48995 28.73381,11.34658 9.92069,-7.60202 15.71433,-22.39515 7.05292,-19.61987 z m -63.39183,144.82814 c -0.63762,-2.06072 -1.87744,-5.45049 -1.8049,-7.77381 0.19103,-6.11854 3.80168,-13.54469 -3.37056,-11.99442 -2.76994,0.59871 3.62908,-16.009 4.67033,-20.11722 5.44927,-21.73467 7.12825,-45.85695 2.37565,-56.74684 -1.51361,-3.46822 -1.63072,-3.46733 -1.02556,-4.93377 4.25443,-10.30934 5.81471,-54.522048 -14.57332,-76.671259 -13.53899,-14.708536 -29.53007,-9.200325 -41.3787,15.426431 -5.98542,12.440368 -8.25251,22.001518 -8.82722,24.253228 -3.73853,14.64757 -8.32295,44.52538 -5.4871,49.14541 0.19262,0.31381 -3.68109,5.98322 -4.04815,6.01659 -1.41395,0.12857 -9.2163,-8.6702 -11.33137,-12.02736 -1.60677,-2.55036 -2.08681,-6.65625 -1.28382,-9.37116 7.2645,-24.56132 10.45036,-43.78652 21.97047,-63.76327 3.97502,-6.892998 6.02114,-10.454992 6.8509,-12.095173 1.00973,-1.995909 -3.29347,-4.160806 -4.24493,-4.451842 -1.55187,-0.474692 4.93293,-0.605699 8.0051,-2.315941 3.0229,-1.682813 6.79505,-4.403097 8.44505,-5.934984 21.58049,-20.035685 43.19984,-15.130399 56.11809,13.0789 l 4.04301,8.828621 -2.17254,7.278079 c -5.98162,20.03862 2.70931,60.02115 11.66844,61.72276 2.60797,0.49532 0.94735,16.26539 -4.47532,46.47772 -2.96849,16.53888 -9.56032,37.50353 -14.46032,49.55663 -3.00255,7.38573 -4.22205,11.07046 -5.66323,6.41268 z M 167.919,177.25677 C 0,0 0,0 167.919,177.25677 Z"
       id="path1"
       sodipodi:nodetypes="sssssssscssssssssssssssssssssssssssssssssssssscssssssscscssscssssssssscsssssssssssssssssssssssssssscsssssss"
       inkscape:label="Main Shape" />
  </g>
</svg>
