<?xml version="1.0" standalone="no"?>
<!DOCTYPE svg PUBLIC "-//W3C//DTD SVG 20010904//EN"
 "http://www.w3.org/TR/2001/REC-SVG-20010904/DTD/svg10.dtd">
<svg version="1.0" xmlns="http://www.w3.org/2000/svg"
 width="330.000000pt" height="58.000000pt" viewBox="0 0 330.000000 58.000000"
 preserveAspectRatio="xMidYMid meet">

<g transform="translate(0.000000,58.000000) scale(0.100000,-0.100000)"
fill="#000000" stroke="none">
<path d="M354 559 c-3 -6 -1 -16 6 -22 10 -9 11 -9 5 2 -6 11 -4 13 10 7 15
-5 16 -4 5 9 -15 18 -17 18 -26 4z"/>
<path d="M261 542 c-7 -13 -6 -33 5 -68 20 -63 13 -122 -17 -163 -32 -44 -68
-61 -129 -61 -37 0 -52 -4 -57 -16 -8 -22 13 -33 51 -24 114 26 198 137 195
257 -2 77 -26 115 -48 75z"/>
<path d="M338 501 c-3 -23 -1 -28 11 -23 13 5 13 3 -1 -17 -12 -17 -13 -32 -7
-68 12 -63 15 -62 17 2 1 30 8 71 17 91 20 48 19 51 -6 23 -14 -17 -19 -19
-15 -7 3 10 1 20 -3 23 -5 2 -11 -8 -13 -24z"/>
<path d="M394 455 c-46 -111 12 -257 126 -315 37 -19 90 -27 90 -14 0 19 -24
44 -43 44 -40 0 -126 47 -146 81 -34 56 -35 95 -6 155 26 53 28 84 5 84 -6 0
-18 -16 -26 -35z"/>
<path d="M929 476 c-112 -30 -171 -97 -177 -202 -11 -167 107 -266 298 -250
128 10 120 1 120 127 l0 109 -52 0 c-49 0 -50 -1 -35 -18 13 -14 17 -38 17
-89 0 -82 -1 -83 -89 -83 -170 0 -257 208 -135 322 55 51 140 63 207 29 l37
-19 0 38 c0 35 -2 38 -37 44 -55 9 -102 6 -154 -8z"/>
<path d="M2949 462 c-155 -81 -162 -321 -11 -409 38 -23 59 -28 113 -28 56 0
73 5 115 30 30 19 60 49 79 79 27 44 30 58 30 126 0 68 -3 82 -30 125 -62 100
-189 133 -296 77z m181 -44 c43 -30 73 -88 78 -153 6 -68 -10 -113 -53 -155
-28 -27 -44 -34 -87 -38 -43 -3 -59 0 -87 20 -76 51 -109 192 -64 270 44 76
144 102 213 56z"/>
<path d="M206 464 c-3 -9 3 -31 14 -49 11 -18 20 -45 21 -61 0 -25 2 -26 8 -9
7 18 8 30 3 88 -2 14 -7 17 -22 12 -11 -4 -20 -2 -20 4 0 6 7 11 16 11 8 0 12
5 9 10 -9 15 -22 12 -29 -6z"/>
<path d="M1377 458 c5 -29 -127 -374 -155 -405 l-20 -23 55 0 c45 0 53 2 44
13 -8 10 -5 31 13 83 l23 69 84 3 85 3 26 -74 c19 -55 23 -78 15 -86 -8 -8 6
-11 53 -11 l63 0 -21 23 c-12 12 -53 106 -93 207 -39 102 -75 193 -80 203 -7
12 -22 17 -53 17 -39 0 -43 -2 -39 -22z m77 -120 c14 -40 26 -76 26 -80 0 -5
-27 -8 -61 -8 -45 0 -60 3 -57 13 3 6 16 42 29 80 13 37 27 67 30 67 4 0 18
-33 33 -72z"/>
<path d="M1720 461 c6 -12 10 -97 10 -206 0 -109 -4 -194 -10 -206 -10 -18 -6
-19 120 -19 144 0 132 -6 155 70 l8 25 -23 -20 c-17 -15 -40 -21 -101 -24
l-79 -3 0 189 c0 134 4 193 12 201 9 9 -1 12 -45 12 -54 0 -57 -1 -47 -19z"/>
<path d="M2044 458 c13 -18 16 -56 16 -203 0 -147 -3 -185 -16 -203 l-15 -22
136 0 c150 0 137 -5 159 68 l8 23 -34 -21 c-23 -14 -50 -20 -90 -20 -88 0 -88
0 -88 92 l0 80 55 -4 c54 -3 55 -3 55 25 0 26 -2 27 -55 27 l-55 0 0 65 0 65
56 0 c30 0 64 -5 75 -10 17 -10 19 -7 19 25 l0 35 -121 0 -120 0 15 -22z"/>
<path d="M2372 463 c13 -15 16 -51 18 -188 3 -211 3 -210 -16 -229 -14 -15
-10 -16 41 -16 l55 0 -15 24 c-13 19 -15 51 -13 174 l3 152 127 -168 c70 -92
140 -175 157 -185 l31 -18 0 213 c0 177 3 217 16 236 15 22 15 22 -35 22 l-50
0 15 -27 c10 -21 14 -66 14 -170 0 -79 -3 -143 -7 -142 -7 0 -188 236 -238
309 -18 26 -26 30 -69 30 -46 0 -48 -1 -34 -17z"/>
<path d="M235 259 c-4 -6 -25 -23 -47 -39 -21 -16 -38 -32 -38 -37 1 -4 -4 -9
-11 -12 -6 -2 -9 1 -6 6 4 7 -8 7 -36 0 -56 -13 -71 -21 -75 -42 -3 -14 1 -16
30 -10 65 14 141 63 178 115 12 16 19 30 16 30 -3 0 -8 -5 -11 -11z"/>
<path d="M458 241 c25 -24 41 -31 72 -31 41 0 46 5 30 30 -8 12 -11 12 -28 -3
-10 -9 -23 -17 -28 -17 -5 0 -2 5 6 10 13 8 13 10 -2 11 -26 2 -31 3 -58 17
-21 11 -20 9 8 -17z"/>
<path d="M190 155 c-50 -16 -130 -78 -130 -101 0 -26 45 -15 69 16 79 107 219
109 278 4 12 -21 30 -39 39 -39 51 0 -1 72 -75 104 -67 28 -126 34 -181 16z"/>
<path d="M397 150 c23 -10 59 -37 81 -59 26 -27 48 -41 66 -41 17 0 24 4 20
14 -8 20 -92 78 -104 71 -5 -3 -10 -2 -10 4 0 6 -17 15 -37 20 -57 16 -63 12
-16 -9z m93 -40 c0 -5 -2 -10 -4 -10 -3 0 -8 5 -11 10 -3 6 -1 10 4 10 6 0 11
-4 11 -10z m31 -24 c5 3 9 1 9 -5 0 -5 -4 -13 -10 -16 -5 -3 -10 -4 -10 -1 0
2 -2 10 -3 18 -2 7 -2 10 0 5 3 -4 9 -5 14 -1z"/>
<path d="M218 119 c-21 -10 -45 -33 -53 -49 -15 -29 -15 -30 9 -30 17 0 29 9
40 31 14 28 14 30 0 25 -8 -3 -12 -2 -9 4 3 6 12 10 19 10 7 0 21 7 32 15 27
21 6 18 -38 -6z m-31 -54 c0 -8 -4 -15 -9 -15 -10 0 -11 14 -1 23 9 10 10 9
10 -8z"/>
</g>
</svg>
