<?xml version="1.0" standalone="no"?>
<!DOCTYPE svg PUBLIC "-//W3C//DTD SVG 20010904//EN"
 "http://www.w3.org/TR/2001/REC-SVG-20010904/DTD/svg10.dtd">
<svg version="1.0" xmlns="http://www.w3.org/2000/svg"
 width="900.000000pt" height="400.000000pt" viewBox="0 0 900.000000 400.000000"
 preserveAspectRatio="xMidYMid meet">

<g transform="translate(0.000000,400.000000) scale(0.100000,-0.100000)"
fill="#000000" stroke="none">
<path d="M7698 2788 c-152 -14 -321 -94 -402 -191 l-36 -42 0 103 0 102 -169
0 -170 0 -3 -562 c-3 -442 -7 -570 -17 -598 -21 -54 -58 -98 -104 -122 -37
-20 -57 -23 -162 -23 -72 0 -134 5 -156 13 -40 14 -93 62 -115 103 -28 55 -34
171 -34 677 l0 512 -170 0 -170 0 -2 -172 -3 -173 -23 45 c-59 112 -149 199
-267 258 -114 57 -164 67 -345 67 -159 0 -168 -1 -253 -31 -48 -18 -113 -47
-144 -65 -125 -75 -246 -220 -295 -352 l-23 -62 -5 240 -5 240 -172 3 -173 2
0 -247 -1 -248 -18 52 c-59 162 -169 292 -308 361 -163 80 -106 77 -1273 77
l-1035 0 -155 -532 c-85 -293 -158 -533 -161 -533 -3 0 -63 186 -134 413 -70
226 -145 467 -167 535 l-39 122 -239 0 -240 0 0 -780 0 -780 160 0 160 0 2
508 3 507 168 -508 168 -507 149 0 c146 0 149 0 155 23 25 86 298 918 310 942
12 26 14 -32 14 -467 l1 -498 950 0 c1067 0 1038 -2 1190 72 147 71 266 215
321 388 l18 55 0 -257 1 -258 175 0 175 0 1 238 c0 181 3 231 11 212 74 -169
150 -272 250 -343 153 -108 263 -141 468 -141 130 0 154 3 225 27 182 60 318
180 394 348 l27 60 17 -61 c51 -183 179 -305 372 -355 96 -25 283 -30 394 -11
171 30 312 119 381 240 l28 49 27 -42 c111 -177 359 -275 653 -258 325 19 536
176 575 427 26 173 -38 322 -180 416 -72 48 -143 74 -341 125 -252 64 -321 89
-364 130 -34 32 -38 41 -38 85 0 70 32 121 95 153 44 23 61 26 155 26 88 0
113 -4 155 -23 83 -38 119 -83 133 -165 l8 -42 159 -3 c87 -1 162 1 167 6 15
15 -11 143 -41 208 -66 142 -194 231 -387 268 -100 19 -179 23 -276 14z
m-2257 -292 c109 -25 209 -107 244 -199 l18 -47 143 0 144 0 0 -275 0 -275
-145 0 -145 0 -25 -51 c-35 -69 -99 -135 -160 -167 -46 -24 -60 -27 -165 -27
-109 0 -118 2 -175 32 -159 82 -239 246 -238 488 0 288 116 475 323 521 73 16
114 16 181 0z m-2491 -521 l0 -495 -405 0 -405 0 0 195 0 195 360 0 360 0 0
130 0 130 -360 0 -360 0 0 170 0 170 405 0 405 0 0 -495z m709 480 c125 -30
205 -93 255 -200 39 -83 50 -151 50 -295 0 -114 -3 -146 -22 -203 -28 -85 -57
-131 -112 -181 -84 -76 -179 -98 -395 -94 l-140 3 -3 493 -2 492 152 0 c101 0
175 -5 217 -15z m3646 -405 c74 -77 165 -117 421 -185 290 -77 347 -103 384
-175 52 -102 -8 -207 -139 -244 -74 -21 -218 -21 -290 0 -113 31 -201 131
-201 226 l0 38 -110 0 -110 0 0 185 c0 102 4 185 8 185 5 0 21 -14 37 -30z"/>
</g>
</svg>
