<?xml version="1.0" standalone="no"?>
<!DOCTYPE svg PUBLIC "-//W3C//DTD SVG 20010904//EN"
 "http://www.w3.org/TR/2001/REC-SVG-20010904/DTD/svg10.dtd">
<svg version="1.0" xmlns="http://www.w3.org/2000/svg"
 width="225.000000pt" height="225.000000pt" viewBox="0 0 225.000000 225.000000"
 preserveAspectRatio="xMidYMid meet">

<g transform="translate(0.000000,225.000000) scale(0.100000,-0.100000)"
fill="#000000" stroke="none">
<path d="M290 1391 c-118 -36 -174 -124 -174 -272 0 -77 3 -94 30 -145 40 -79
97 -115 191 -121 91 -7 145 9 198 58 56 52 80 117 80 219 0 94 -17 141 -68
197 -57 62 -170 90 -257 64z m155 -102 c44 -39 59 -91 53 -190 -7 -117 -48
-169 -134 -169 -82 0 -125 57 -132 173 -7 107 27 188 88 210 43 15 90 6 125
-24z"/>
<path d="M1362 1384 c-38 -26 -24 -84 25 -99 17 -4 30 1 48 20 54 53 -11 123
-73 79z"/>
<path d="M1950 1122 c0 -161 3 -223 13 -236 17 -23 72 -34 127 -27 42 6 45 8
48 39 3 29 1 32 -23 32 -59 0 -65 11 -65 125 l0 105 45 0 c45 0 45 0 45 35 0
35 0 35 -44 35 l-45 0 -3 53 -3 52 -47 3 -48 3 0 -219z"/>
<path d="M856 1230 c-15 -5 -36 -16 -46 -25 -17 -16 -19 -15 -30 4 -8 17 -20
21 -57 21 l-46 0 7 -37 c3 -21 6 -104 6 -185 l0 -148 49 0 49 0 4 136 c3 121
5 137 22 150 26 19 71 18 90 -2 13 -12 16 -41 16 -150 l0 -134 55 0 55 0 0
123 c0 145 9 171 61 175 60 5 68 -14 71 -163 l3 -130 53 -3 52 -3 0 128 c0
149 -10 195 -48 221 -58 41 -144 34 -182 -15 l-21 -27 -16 23 c-17 25 -71 52
-100 50 -10 0 -31 -5 -47 -9z"/>
<path d="M1695 1226 c-17 -7 -37 -21 -45 -31 -14 -17 -15 -16 -20 6 -5 21 -13
24 -53 27 l-47 3 0 -185 0 -186 55 0 55 0 0 133 c0 149 7 167 67 167 50 0 57
-19 63 -164 l5 -131 48 -3 47 -3 0 153 c0 168 -5 184 -60 213 -35 18 -75 19
-115 1z"/>
<path d="M1340 1045 l0 -185 55 0 55 0 0 185 0 185 -55 0 -55 0 0 -185z"/>
</g>
</svg>
