<?xml version="1.0" standalone="no"?>
<!DOCTYPE svg PUBLIC "-//W3C//DTD SVG 20010904//EN"
 "http://www.w3.org/TR/2001/REC-SVG-20010904/DTD/svg10.dtd">
<svg version="1.0" xmlns="http://www.w3.org/2000/svg"
 width="330.000000pt" height="330.000000pt" viewBox="0 0 330.000000 330.000000"
 preserveAspectRatio="xMidYMid meet">

<g transform="translate(0.000000,330.000000) scale(0.100000,-0.100000)"
fill="#000000" stroke="none">
<path d="M0 1650 l0 -1650 1650 0 1650 0 0 1650 0 1650 -1650 0 -1650 0 0
-1650z m2208 88 l-3 -373 -52 -3 c-44 -3 -53 0 -67 20 -15 21 -18 21 -39 9
-60 -39 -84 -46 -152 -45 -55 0 -81 6 -121 27 -99 50 -144 135 -144 266 0 91
27 156 86 213 75 71 208 91 297 43 l46 -24 3 96 3 96 60 23 c33 13 66 23 73
23 10 1 12 -77 10 -371z m-777 271 c46 -14 134 -89 127 -109 -2 -6 -30 -26
-62 -43 -43 -23 -61 -28 -64 -19 -22 68 -181 81 -190 16 -4 -30 14 -41 122
-69 166 -43 208 -76 208 -165 0 -115 -95 -189 -242 -190 -58 0 -87 6 -125 24
-46 21 -115 85 -115 106 0 8 106 70 119 70 3 0 14 -13 23 -29 23 -41 84 -58
141 -39 94 30 69 76 -56 103 -45 9 -98 24 -117 32 -153 63 -135 255 30 314 60
21 124 21 201 -2z m-568 -105 c107 -36 178 -140 180 -263 1 -113 -40 -198
-122 -250 -162 -105 -395 -30 -446 142 -45 150 8 290 133 354 55 28 74 33 136
33 40 0 93 -7 119 -16z m1798 1 c62 -21 109 -63 144 -126 24 -45 29 -66 29
-124 l1 -70 -207 -3 c-115 -1 -208 -5 -208 -8 0 -3 7 -18 15 -35 21 -40 71
-69 118 -69 39 0 104 28 126 53 11 14 19 13 72 -5 32 -11 59 -23 59 -26 0 -22
-47 -77 -86 -102 -154 -97 -365 -38 -435 123 -30 71 -30 174 0 242 33 74 86
125 160 151 49 18 158 17 212 -1z m-1362 -583 c91 -5 173 9 233 39 l38 19 35
-47 c19 -27 35 -52 35 -56 0 -12 -96 -54 -165 -72 -74 -19 -201 -19 -280 0
-66 15 -151 50 -160 66 -4 5 7 32 25 58 l31 49 62 -25 c43 -18 87 -28 146 -31z"/>
<path d="M1882 1780 c-62 -14 -112 -80 -112 -147 0 -116 119 -188 217 -133 51
28 75 70 76 129 2 102 -84 173 -181 151z"/>
<path d="M683 1774 c-47 -23 -76 -75 -77 -138 -2 -203 276 -217 291 -14 9 125
-105 206 -214 152z"/>
<path d="M2512 1793 c-24 -5 -92 -66 -92 -83 0 -6 53 -10 130 -10 101 0 130 3
130 13 0 21 -53 67 -91 77 -35 10 -38 10 -77 3z"/>
</g>
</svg>
